<?xml version="1.0" standalone="no"?>
<!DOCTYPE svg PUBLIC "-//W3C//DTD SVG 20010904//EN"
 "http://www.w3.org/TR/2001/REC-SVG-20010904/DTD/svg10.dtd">
<svg version="1.0" xmlns="http://www.w3.org/2000/svg"
 width="300.000000pt" height="300.000000pt" viewBox="0 0 300.000000 300.000000"
 preserveAspectRatio="xMidYMid meet">
<metadata>
Created by potrace 1.14, written by Peter Selinger 2001-2017
</metadata>
<g transform="translate(0.000000,300.000000) scale(0.100000,-0.100000)"
fill="#000000" stroke="none">
<path d="M755 2964 c-31 -67 -77 -209 -100 -316 -29 -130 -128 -458 -155 -513
-11 -22 -20 -51 -20 -64 0 -41 -97 -405 -162 -606 -48 -149 -67 -195 -89 -216
-19 -17 -26 -33 -23 -46 3 -12 -2 -27 -12 -37 -14 -14 -15 -19 -4 -26 11 -7
12 -22 3 -77 -6 -40 -7 -78 -2 -91 5 -13 9 -36 9 -51 0 -16 7 -34 15 -41 9 -8
12 -18 6 -27 -22 -41 48 -233 114 -313 25 -30 49 -68 52 -83 4 -22 10 -27 24
-24 12 3 20 -2 24 -13 3 -10 20 -23 37 -29 27 -9 35 -8 52 8 15 13 27 16 41
11 19 -7 19 -8 2 -15 -17 -7 -17 -9 -2 -26 11 -11 14 -25 10 -38 -4 -12 -2
-21 4 -21 6 0 11 -6 11 -14 0 -7 23 -25 52 -40 45 -23 53 -25 60 -11 9 15 39
21 51 9 3 -4 2 -15 -3 -25 -8 -14 -1 -25 38 -58 55 -48 74 -50 125 -16 28 20
41 23 56 16 10 -6 22 -7 26 -3 4 4 -2 -11 -15 -33 -32 -59 -19 -85 58 -113 44
-17 82 -22 150 -22 50 0 93 4 96 9 3 5 51 9 106 8 55 0 103 3 107 7 9 8 12
186 4 186 -3 0 -22 14 -41 31 -129 112 -167 166 -137 196 13 13 45 16 177 18
152 2 162 0 176 -19 12 -18 12 -21 -1 -29 -8 -4 -15 -14 -15 -22 0 -7 -6 -15
-12 -18 -10 -3 -10 -9 -1 -25 11 -19 6 -26 -53 -81 l-66 -61 -4 -90 -3 -90 37
0 c20 0 57 -5 81 -11 24 -5 47 -6 50 -2 3 5 60 9 127 9 101 0 130 4 182 23 69
26 73 35 43 93 -16 29 -18 39 -7 53 11 16 15 16 42 2 16 -9 37 -25 46 -36 23
-28 45 -26 92 5 35 24 38 29 32 63 -3 20 -6 42 -6 49 0 6 -6 12 -14 12 -15 0
-30 29 -21 39 3 3 10 -1 15 -9 6 -10 9 -4 12 19 l3 33 39 -51 c44 -58 65 -63
117 -28 52 34 50 66 -6 148 -47 68 -51 93 -20 105 20 8 40 -9 86 -78 33 -48
45 -58 69 -58 16 0 42 11 59 25 54 46 130 150 152 211 12 32 26 64 31 71 13
16 39 133 33 143 -3 5 -129 9 -280 10 l-274 0 -15 -22 c-7 -13 -17 -34 -21
-48 -11 -37 -39 -64 -94 -90 -64 -29 -121 -22 -175 22 -39 32 -75 96 -76 133
0 69 46 142 111 175 104 53 215 -5 253 -133 5 -15 22 -17 143 -19 210 -3 412
0 428 6 23 8 20 184 -4 288 -27 116 -77 297 -92 333 -7 17 -11 37 -10 46 1 8
-10 32 -24 53 -14 20 -25 49 -25 64 0 48 -85 351 -235 837 -24 77 -64 212 -90
300 -56 189 -59 195 -89 195 -35 0 -66 -41 -80 -106 -18 -81 -159 -565 -187
-638 -12 -33 -32 -70 -45 -83 -27 -27 -32 -48 -9 -39 19 7 19 -3 0 -27 -7 -11
-11 -25 -8 -33 7 -18 -7 -18 -98 1 -149 30 -323 47 -357 34 -19 -7 -27 -6 -37
7 -11 15 -13 15 -21 2 -12 -21 -134 -40 -134 -21 0 20 -18 16 -25 -6 -5 -15
-67 -41 -99 -41 -2 0 -12 20 -22 45 -16 44 -16 46 1 59 18 13 18 14 1 23 -28
16 -70 133 -161 453 -101 352 -108 370 -145 370 -22 0 -31 -8 -45 -36z m311
-1960 c43 -32 62 -65 69 -121 6 -45 4 -53 -9 -53 -10 0 -16 -9 -16 -26 0 -14
-4 -23 -8 -20 -5 3 -15 -11 -23 -30 -24 -63 -90 -80 -171 -45 -44 19 -97 70
-99 97 -3 28 -4 32 -12 41 -5 4 -52 9 -105 10 -53 0 -118 1 -144 2 -27 1 -48
5 -48 11 0 5 60 11 147 12 l146 3 12 34 c6 18 26 51 44 73 l34 40 78 -4 c59
-2 84 -8 105 -24z m-741 -134 c8 -13 -5 -13 -25 0 -13 8 -13 10 2 10 9 0 20
-4 23 -10z m349 -352 c14 -23 -12 -71 -36 -65 -9 3 -22 -1 -28 -8 -10 -12 -50
-17 -50 -7 0 2 19 26 41 54 42 50 55 54 73 26z"/>
</g>
</svg>
